<?xml version="1.0" standalone="no"?><!DOCTYPE svg PUBLIC "-//W3C//DTD SVG 1.1//EN" "http://www.w3.org/Graphics/SVG/1.1/DTD/svg11.dtd"><svg t="1570778082521" class="icon" viewBox="0 0 1024 1024" version="1.1" xmlns="http://www.w3.org/2000/svg" p-id="1317" width="32" height="32" xmlns:xlink="http://www.w3.org/1999/xlink"><defs><style type="text/css"></style></defs><path d="M734.208 490.496 525.312 490.496 525.312 281.6c0-13.312-8.192-21.504-21.504-21.504-13.312 0-21.504 8.192-21.504 21.504l0 208.896L273.408 490.496c-8.192 0-17.408 8.192-17.408 21.504 0 13.312 8.192 21.504 21.504 21.504l208.896 0 0 208.896c0 13.312 8.192 21.504 21.504 21.504 13.312 0 21.504-8.192 21.504-21.504L529.408 533.504l208.896 0c12.288 0 21.504-8.192 21.504-21.504C755.712 498.688 742.4 490.496 734.208 490.496zM503.808 55.296C251.904 55.296 47.104 260.096 47.104 512s204.8 456.704 456.704 456.704 456.704-204.8 456.704-456.704S755.712 55.296 503.808 55.296zM503.808 929.792C273.408 929.792 84.992 742.4 84.992 512S273.408 94.208 503.808 94.208 921.6 281.6 921.6 512 734.208 929.792 503.808 929.792z" p-id="1318"></path></svg>